<svg xmlns="http://www.w3.org/2000/svg" xmlns:xlink="http://www.w3.org/1999/xlink" version="1.1" width="256" height="256" viewBox="0 0 256 256" xml:space="preserve">

<defs>
</defs>
<g style="stroke: none; stroke-width: 0; stroke-dasharray: none; stroke-linecap: butt; stroke-linejoin: miter; stroke-miterlimit: 10; fill: none; fill-rule: nonzero; opacity: 1;" transform="translate(1.4065934065934016 1.4065934065934016) scale(2.81 2.81)" >
	<path d="M 42.092 13.097 h -7.338 h -6.428 h -6.779 h -7.339 H 7.778 H 1 c -0.552 0 -1 0.448 -1 1 v 20.546 V 55.19 v 20.546 c 0 0.553 0.448 1 1 1 h 20.546 h 20.546 c 0.552 0 1 -0.447 1 -1 V 55.19 V 34.643 V 14.097 C 43.092 13.545 42.644 13.097 42.092 13.097 z M 29.325 56.19 h 4.428 v 6.52 h -4.428 V 56.19 z M 34.753 54.19 h -6.428 h -5.779 V 35.643 h 4.779 v 7.52 c 0 0.552 0.448 1 1 1 h 6.428 c 0.552 0 1 -0.448 1 -1 v -7.52 h 5.338 V 54.19 H 34.753 z M 8.778 56.19 h 4.429 v 6.52 H 8.778 V 56.19 z M 14.207 54.19 H 7.778 H 2 V 35.643 h 4.779 v 7.52 c 0 0.552 0.448 1 1 1 h 6.429 c 0.552 0 1 -0.448 1 -1 v -7.52 h 5.338 V 54.19 H 14.207 z M 8.778 35.643 h 4.429 v 6.52 H 8.778 V 35.643 z M 29.325 35.643 h 4.428 v 6.52 h -4.428 V 35.643 z M 41.092 33.643 h -6.338 h -6.428 h -5.779 V 15.097 h 4.779 v 7.52 c 0 0.552 0.448 1 1 1 h 6.428 c 0.552 0 1 -0.448 1 -1 v -7.52 h 5.338 V 33.643 z M 33.753 15.097 v 6.52 h -4.428 v -6.52 H 33.753 z M 13.207 15.097 v 6.52 H 8.778 v -6.52 H 13.207 z M 2 15.097 h 4.779 v 7.52 c 0 0.552 0.448 1 1 1 h 6.429 c 0.552 0 1 -0.448 1 -1 v -7.52 h 5.338 v 18.546 h -6.338 H 7.778 H 2 V 15.097 z M 2 56.19 h 4.779 v 7.52 c 0 0.553 0.448 1 1 1 h 6.429 c 0.552 0 1 -0.447 1 -1 v -7.52 h 5.338 v 18.546 H 2 V 56.19 z M 41.092 74.736 H 22.546 V 56.19 h 4.779 v 7.52 c 0 0.553 0.448 1 1 1 h 6.428 c 0.552 0 1 -0.447 1 -1 v -7.52 h 5.338 V 74.736 z" style="stroke: none; stroke-width: 1; stroke-dasharray: none; stroke-linecap: butt; stroke-linejoin: miter; stroke-miterlimit: 10; fill: rgb(0,0,0); fill-rule: nonzero; opacity: 1;" transform=" matrix(1 0 0 1 0 0) " stroke-linecap="round" />
	<path d="M 63.267 38.297 c -0.132 0 -0.264 -0.026 -0.388 -0.078 l -5.25 -2.208 c -0.509 -0.214 -0.748 -0.8 -0.534 -1.31 l 2.208 -5.25 c 0.215 -0.51 0.803 -0.746 1.31 -0.534 l 5.25 2.208 c 0.244 0.103 0.438 0.298 0.538 0.544 c 0.101 0.246 0.099 0.521 -0.004 0.766 l -2.208 5.251 c -0.103 0.245 -0.299 0.438 -0.544 0.538 C 63.524 38.272 63.395 38.297 63.267 38.297 z M 59.326 34.555 l 3.406 1.433 l 1.433 -3.407 l -3.406 -1.432 L 59.326 34.555 z" style="stroke: none; stroke-width: 1; stroke-dasharray: none; stroke-linecap: butt; stroke-linejoin: miter; stroke-miterlimit: 10; fill: rgb(0,0,0); fill-rule: nonzero; opacity: 1;" transform=" matrix(1 0 0 1 0 0) " stroke-linecap="round" />
	<path d="M 59.347 47.617 c -0.13 0 -0.261 -0.025 -0.388 -0.078 l -5.25 -2.208 c -0.244 -0.103 -0.438 -0.298 -0.538 -0.544 c -0.101 -0.246 -0.099 -0.521 0.004 -0.766 l 2.208 -5.25 c 0.215 -0.51 0.801 -0.747 1.31 -0.534 l 5.25 2.208 c 0.244 0.103 0.438 0.299 0.538 0.544 c 0.101 0.246 0.099 0.521 -0.004 0.765 l -2.208 5.25 C 60.108 47.388 59.736 47.617 59.347 47.617 z M 55.406 43.875 l 3.406 1.432 l 1.433 -3.406 l -3.406 -1.433 L 55.406 43.875 z" style="stroke: none; stroke-width: 1; stroke-dasharray: none; stroke-linecap: butt; stroke-linejoin: miter; stroke-miterlimit: 10; fill: rgb(0,0,0); fill-rule: nonzero; opacity: 1;" transform=" matrix(1 0 0 1 0 0) " stroke-linecap="round" />
	<path d="M 55.427 56.939 c -0.13 0 -0.261 -0.025 -0.388 -0.078 l -5.25 -2.208 c -0.509 -0.214 -0.748 -0.801 -0.534 -1.31 l 2.208 -5.25 c 0.215 -0.511 0.803 -0.745 1.31 -0.534 l 5.25 2.208 c 0.509 0.214 0.748 0.801 0.534 1.31 l -2.208 5.25 C 56.188 56.709 55.817 56.939 55.427 56.939 z M 51.486 53.196 l 3.406 1.433 l 1.433 -3.406 l -3.406 -1.433 L 51.486 53.196 z" style="stroke: none; stroke-width: 1; stroke-dasharray: none; stroke-linecap: butt; stroke-linejoin: miter; stroke-miterlimit: 10; fill: rgb(0,0,0); fill-rule: nonzero; opacity: 1;" transform=" matrix(1 0 0 1 0 0) " stroke-linecap="round" />
	<path d="M 76.09 40.601 c -0.13 0 -0.261 -0.025 -0.388 -0.079 l -7.969 -3.352 c -0.509 -0.214 -0.748 -0.8 -0.534 -1.31 c 0.215 -0.51 0.801 -0.748 1.31 -0.534 l 7.969 3.352 c 0.509 0.214 0.748 0.8 0.534 1.31 C 76.851 40.37 76.48 40.601 76.09 40.601 z" style="stroke: none; stroke-width: 1; stroke-dasharray: none; stroke-linecap: butt; stroke-linejoin: miter; stroke-miterlimit: 10; fill: rgb(0,0,0); fill-rule: nonzero; opacity: 1;" transform=" matrix(1 0 0 1 0 0) " stroke-linecap="round" />
	<path d="M 72.17 49.921 c -0.13 0 -0.261 -0.025 -0.388 -0.078 l -7.969 -3.352 c -0.509 -0.214 -0.748 -0.8 -0.534 -1.309 c 0.215 -0.51 0.803 -0.747 1.31 -0.534 l 7.969 3.351 c 0.509 0.214 0.748 0.801 0.534 1.31 C 72.931 49.691 72.56 49.921 72.17 49.921 z" style="stroke: none; stroke-width: 1; stroke-dasharray: none; stroke-linecap: butt; stroke-linejoin: miter; stroke-miterlimit: 10; fill: rgb(0,0,0); fill-rule: nonzero; opacity: 1;" transform=" matrix(1 0 0 1 0 0) " stroke-linecap="round" />
	<path d="M 68.25 59.242 c -0.13 0 -0.261 -0.025 -0.388 -0.078 l -7.969 -3.352 c -0.509 -0.214 -0.748 -0.801 -0.534 -1.31 c 0.215 -0.511 0.801 -0.745 1.31 -0.534 l 7.969 3.352 c 0.509 0.214 0.748 0.801 0.534 1.31 C 69.011 59.013 68.64 59.242 68.25 59.242 z" style="stroke: none; stroke-width: 1; stroke-dasharray: none; stroke-linecap: butt; stroke-linejoin: miter; stroke-miterlimit: 10; fill: rgb(0,0,0); fill-rule: nonzero; opacity: 1;" transform=" matrix(1 0 0 1 0 0) " stroke-linecap="round" />
	<path d="M 68.724 76.905 c -0.511 0 -1.021 -0.102 -1.505 -0.306 L 46.66 67.953 c -0.509 -0.214 -0.748 -0.801 -0.534 -1.31 c 0.215 -0.511 0.802 -0.745 1.31 -0.534 l 20.559 8.646 c 0.958 0.401 2.062 -0.049 2.464 -1.005 l 17.394 -41.362 c 0.402 -0.957 -0.049 -2.062 -1.005 -2.464 l -8.205 -3.45 c -0.244 -0.103 -0.438 -0.298 -0.538 -0.544 c -0.101 -0.246 -0.099 -0.521 0.004 -0.766 c 0.352 -0.836 0.356 -1.76 0.014 -2.6 c -0.343 -0.84 -0.991 -1.496 -1.828 -1.848 l -4.465 -1.878 c -0.836 -0.351 -1.758 -0.357 -2.6 -0.014 c -0.84 0.343 -1.496 0.992 -1.848 1.829 c -0.215 0.51 -0.803 0.748 -1.31 0.534 l -8.205 -3.45 c -0.463 -0.195 -0.976 -0.198 -1.44 -0.008 c -0.466 0.19 -0.829 0.55 -1.024 1.013 L 47.97 36.416 c -0.215 0.51 -0.802 0.748 -1.31 0.534 c -0.509 -0.214 -0.748 -0.8 -0.534 -1.31 l 7.432 -17.675 c 0.402 -0.956 1.152 -1.698 2.113 -2.09 c 0.959 -0.391 2.017 -0.385 2.971 0.016 l 7.368 3.098 c 0.593 -0.901 1.443 -1.602 2.464 -2.019 c 1.336 -0.545 2.801 -0.538 4.13 0.022 l 4.465 1.878 c 1.329 0.559 2.36 1.602 2.905 2.936 c 0.416 1.021 0.51 2.119 0.28 3.173 l 7.368 3.098 c 1.973 0.83 2.903 3.111 2.073 5.084 L 72.302 74.526 c -0.402 0.956 -1.152 1.697 -2.112 2.089 C 69.716 76.808 69.22 76.905 68.724 76.905 z" style="stroke: none; stroke-width: 1; stroke-dasharray: none; stroke-linecap: butt; stroke-linejoin: miter; stroke-miterlimit: 10; fill: rgb(0,0,0); fill-rule: nonzero; opacity: 1;" transform=" matrix(1 0 0 1 0 0) " stroke-linecap="round" />
	<path d="M 66.996 69.855 c -0.32 0 -0.64 -0.064 -0.944 -0.192 l -18.045 -7.588 c -0.509 -0.214 -0.748 -0.801 -0.534 -1.31 c 0.215 -0.511 0.801 -0.745 1.31 -0.534 l 18.046 7.588 c 0.145 0.061 0.27 0.03 0.332 0.002 c 0.062 -0.024 0.175 -0.089 0.235 -0.232 l 13.965 -33.207 c 0.061 -0.144 0.027 -0.27 0.002 -0.332 c -0.025 -0.062 -0.09 -0.175 -0.233 -0.236 l -21.735 -9.14 c -0.145 -0.062 -0.271 -0.027 -0.332 -0.002 c -0.063 0.025 -0.176 0.089 -0.236 0.233 l -9.51 22.615 c -0.215 0.51 -0.801 0.745 -1.31 0.534 c -0.509 -0.214 -0.748 -0.801 -0.534 -1.31 l 9.51 -22.614 c 0.252 -0.599 0.722 -1.064 1.324 -1.31 c 0.601 -0.246 1.263 -0.244 1.863 0.01 l 21.734 9.14 c 0.599 0.251 1.064 0.722 1.311 1.324 c 0.245 0.602 0.242 1.263 -0.01 1.862 L 69.24 68.363 c -0.252 0.6 -0.722 1.064 -1.324 1.311 C 67.618 69.794 67.308 69.855 66.996 69.855 z" style="stroke: none; stroke-width: 1; stroke-dasharray: none; stroke-linecap: butt; stroke-linejoin: miter; stroke-miterlimit: 10; fill: rgb(0,0,0); fill-rule: nonzero; opacity: 1;" transform=" matrix(1 0 0 1 0 0) " stroke-linecap="round" />
</g>
</svg>